# xmcd CD database file
#
# Track frame offsets:
#	150
#	22720
#	40369
#	58143
#	70442
#	89508
#	111882
#	128032
#	147398
#	163476
#	178350
#	193185
#
# Disc length: 2822 seconds
#
# Revision: 1
# Processed by: cddbd v1.4PL0 Copyright (c) Steve Scherf et al.
# Submitted via: CDex 1.40Beta8
#
DISCID=ba0b040c
DTITLE=Tyla - The Idle Gait Of The Self Possessed
DYEAR=2000
DGENRE=Blues
TTITLE0=Golden Boots Boy
TTITLE1=Key Of Heartache
TTITLE2=Fake
TTITLE3=Unconcious Boy (2000)
TTITLE4=A Wonderful Lie
TTITLE5=Become
TTITLE6=Something To Believe In
TTITLE7=Magic
TTITLE8=Words
TTITLE9=Blue
TTITLE10=Sadness Of Loss
TTITLE11=Outtro
EXTD=YEAR: 2000 ID3G: 0
EXTT0=
EXTT1=
EXTT2=
EXTT3=
EXTT4=
EXTT5=
EXTT6=
EXTT7=
EXTT8=
EXTT9=
EXTT10=
EXTT11=
PLAYORDER=
